<?xml version="1.0" encoding="UTF-8"?>
<!DOCTYPE svg PUBLIC "-//W3C//DTD SVG 1.1//EN" "http://www.w3.org/Graphics/SVG/1.1/DTD/svg11.dtd">
<svg xmlns="http://www.w3.org/2000/svg" version="1.1" width="119px" height="70px" style="shape-rendering:geometricPrecision; text-rendering:geometricPrecision; image-rendering:optimizeQuality; fill-rule:evenodd; clip-rule:evenodd" xmlns:xlink="http://www.w3.org/1999/xlink">
<g><path style="opacity:0.908" fill="#fefffe" d="M 11.5,4.5 C 19.0168,3.27066 24.5168,5.93732 28,12.5C 29.3196,16.9753 29.8196,21.4753 29.5,26C 28.0367,28.6312 26.0367,30.7979 23.5,32.5C 19.583,32.3093 15.583,32.1426 11.5,32C 2.84628,28.0393 0.0129514,21.5393 3,12.5C 5.09821,8.89715 7.93154,6.23049 11.5,4.5 Z M 14.5,15.5 C 18.35,15.7007 19.35,17.5341 17.5,21C 12.7217,21.0734 11.7217,19.2401 14.5,15.5 Z"/></g>
<g><path style="opacity:0.896" fill="#fefffe" d="M 32.5,4.5 C 35.8806,4.45954 39.2139,4.79287 42.5,5.5C 41.3094,10.2377 41.4761,14.9044 43,19.5C 44.7972,22.0959 46.1305,21.7626 47,18.5C 47.499,14.1794 47.6657,9.84611 47.5,5.5C 51.1667,5.5 54.8333,5.5 58.5,5.5C 58.8774,12.2569 58.3774,18.9236 57,25.5C 51.6108,32.9537 44.7774,34.4537 36.5,30C 31.8549,25.9038 29.8549,20.7372 30.5,14.5C 30.3186,10.9349 30.9852,7.60155 32.5,4.5 Z"/></g>
<g><path style="opacity:0.914" fill="#fefffe" d="M 63.5,4.5 C 67.0071,3.99353 70.1737,4.66019 73,6.5C 73.906,25.5341 73.5726,44.5341 72,63.5C 68.9537,65.9715 65.9537,65.9715 63,63.5C 60.7352,44.9024 60.0686,26.2358 61,7.5C 61.6979,6.30943 62.5313,5.30943 63.5,4.5 Z"/></g>
<g><path style="opacity:0.859" fill="#fefffe" d="M 99.5,27.5 C 93.4333,36.6222 88.1,46.2889 83.5,56.5C 89.994,57.6882 96.494,57.6882 103,56.5C 105.547,56.7618 108.047,57.2618 110.5,58C 111.591,60.0639 111.758,62.2305 111,64.5C 99.2287,65.8203 87.3953,65.8203 75.5,64.5C 74.2692,61.4616 74.4359,58.4616 76,55.5C 82.9474,41.0986 90.7807,27.2653 99.5,14C 91.8333,13.6667 84.1667,13.3333 76.5,13C 74.2814,8.38873 75.6147,5.5554 80.5,4.5C 90.5199,5.14217 100.52,5.80884 110.5,6.5C 111.767,9.23917 111.601,11.9058 110,14.5C 105.504,18.1486 102.004,22.4819 99.5,27.5 Z"/></g>
<g><path style="opacity:0.745" fill="#fefffe" d="M 99.5,27.5 C 104.167,27.5 108.833,27.5 113.5,27.5C 113.5,28.5 113.5,29.5 113.5,30.5C 108.833,30.5 104.167,30.5 99.5,30.5C 99.5,29.5 99.5,28.5 99.5,27.5 Z"/></g>
<g><path style="opacity:0.927" fill="#fefffe" d="M 8.5,34.5 C 12.8461,34.3343 17.1794,34.501 21.5,35C 22.7895,39.1032 23.9561,43.2699 25,47.5C 26.8962,45.4701 29.0629,43.8034 31.5,42.5C 33.5,43.8333 35.5,45.1667 37.5,46.5C 38.3939,42.8019 39.3939,39.1353 40.5,35.5C 44.7953,34.3391 49.1287,34.1725 53.5,35C 54.6642,36.9939 55.3308,39.1605 55.5,41.5C 54.9235,48.9381 53.7568,56.2714 52,63.5C 44.4936,66.8345 37.6603,65.8345 31.5,60.5C 25.5684,65.8654 18.9018,66.8654 11.5,63.5C 7.71803,54.0848 6.71803,44.4182 8.5,34.5 Z"/></g>
<g><path style="opacity:0.596" fill="#fefffe" d="M 95.5,36.5 C 99.5138,36.3345 103.514,36.5012 107.5,37C 108.833,38 108.833,39 107.5,40C 103.179,40.499 98.8461,40.6657 94.5,40.5C 94.4326,39.0413 94.7659,37.7079 95.5,36.5 Z"/></g>
<g><path style="opacity:0.6" fill="#fefffe" d="M 103.5,44.5 C 106.173,44.6845 106.84,45.8511 105.5,48C 101.59,49.9066 98.2564,52.5733 95.5,56C 92.0286,56.6199 90.0286,55.1199 89.5,51.5C 89.8333,50.8333 90.1667,50.1667 90.5,49.5C 91.8139,50.3128 92.9805,51.3128 94,52.5C 96.772,49.2166 99.9386,46.5499 103.5,44.5 Z"/></g>
</svg>
