<svg width="40" height="40" viewBox="0 0 40 40" fill="none" xmlns="http://www.w3.org/2000/svg">
<circle cx="20" cy="20" r="20" fill="#6979F8"/>
<path fill-rule="evenodd" clip-rule="evenodd" d="M19.9998 12.9344C20.5883 12.9344 21.0653 13.4115 21.0653 14V18.9344H25.9998C26.5883 18.9344 27.0653 19.4115 27.0653 20C27.0653 20.5884 26.5883 21.0655 25.9998 21.0655H21.0653V26C21.0653 26.5884 20.5883 27.0655 19.9998 27.0655C19.4114 27.0655 18.9343 26.5884 18.9343 26V21.0655H13.9998C13.4114 21.0655 12.9343 20.5884 12.9343 20C12.9343 19.4115 13.4114 18.9344 13.9998 18.9344H18.9343V14C18.9343 13.4115 19.4114 12.9344 19.9998 12.9344Z" fill="white"/>
</svg>
