<svg width="58" height="58" viewBox="0 0 58 58" fill="none" xmlns="http://www.w3.org/2000/svg">
<g id="arcticons:formsapp">
<path id="Vector" d="M48.7091 31.7816H42.9466C41.4857 31.7816 40.3015 32.9658 40.3015 34.4267V48.6717C40.3015 50.1325 41.4857 51.3167 42.9466 51.3167H48.7091C50.1699 51.3167 51.3541 50.1325 51.3541 48.6717V34.4267C51.3541 32.9658 50.1699 31.7816 48.7091 31.7816Z" stroke="#00676C" stroke-width="2" stroke-linecap="round" stroke-linejoin="round"/>
<path id="Vector_2" d="M31.9181 6.64587H26.1555C24.6947 6.64587 23.5105 7.8301 23.5105 9.29092V48.7092C23.5105 50.17 24.6947 51.3542 26.1555 51.3542H31.9181C33.3789 51.3542 34.5631 50.17 34.5631 48.7092V9.29092C34.5631 7.8301 33.3789 6.64587 31.9181 6.64587Z" stroke="#00676C" stroke-width="2" stroke-linecap="round" stroke-linejoin="round"/>
<path id="Vector_3" d="M15.0533 20.6794H9.29079C7.82998 20.6794 6.64575 21.8637 6.64575 23.3245V48.6342C6.64575 50.0951 7.82998 51.2793 9.29079 51.2793H15.0533C16.5142 51.2793 17.6984 50.0951 17.6984 48.6342V23.3245C17.6984 21.8637 16.5142 20.6794 15.0533 20.6794Z" stroke="#00676C" stroke-width="2" stroke-linecap="round" stroke-linejoin="round"/>
</g>
</svg>
