<svg width="29" height="30" viewBox="0 0 29 30" fill="none" xmlns="http://www.w3.org/2000/svg">
<path d="M14.5 26.7045C12.8284 26.7045 11.2576 26.3856 9.78746 25.748C8.31732 25.1103 7.0385 24.2456 5.951 23.154C4.8635 22.0615 4.00277 20.7769 3.36879 19.3001C2.73482 17.8232 2.41743 16.2452 2.41663 14.5661C2.41663 12.887 2.73401 11.309 3.36879 9.83214C4.00357 8.3553 4.86431 7.07066 5.951 5.97821C7.0385 4.88575 8.31732 4.0211 9.78746 3.38424C11.2576 2.74738 12.8284 2.42854 14.5 2.42773C16.1715 2.42773 17.7423 2.74657 19.2125 3.38424C20.6826 4.02191 21.9614 4.88656 23.0489 5.97821C24.1364 7.07066 24.9976 8.3553 25.6323 9.83214C26.2671 11.309 26.5841 12.887 26.5833 14.5661C26.5833 16.2452 26.2659 17.8232 25.6311 19.3001C24.9963 20.7769 24.1356 22.0615 23.0489 23.154C21.9614 24.2464 20.6826 25.1115 19.2125 25.7492C17.7423 26.3868 16.1715 26.7053 14.5 26.7045ZM14.5 24.2768C17.1986 24.2768 19.4843 23.3361 21.3573 21.4546C23.2302 19.5732 24.1666 17.277 24.1666 14.5661C24.1666 11.8552 23.2302 9.55902 21.3573 7.67758C19.4843 5.79613 17.1986 4.85541 14.5 4.85541C11.8013 4.85541 9.51558 5.79613 7.64267 7.67758C5.76975 9.55902 4.83329 11.8552 4.83329 14.5661C4.83329 17.277 5.76975 19.5732 7.64267 21.4546C9.51558 23.3361 11.8013 24.2768 14.5 24.2768Z" fill="white"/>
<path d="M19.6354 14.7175C19.6354 16.0455 19.1102 17.3191 18.1755 18.2581C17.2407 19.1971 15.9729 19.7246 14.651 19.7246C13.3291 19.7246 12.0613 19.1971 11.1265 18.2581C10.1918 17.3191 9.66663 16.0455 9.66663 14.7175C9.66663 13.3896 10.1918 12.116 11.1265 11.177C12.0613 10.238 13.3291 9.71045 14.651 9.71045C15.9729 9.71045 17.2407 10.238 18.1755 11.177C19.1102 12.116 19.6354 13.3896 19.6354 14.7175Z" fill="black"/>
</svg>
