<svg width="26" height="26" viewBox="0 0 26 26" fill="none" xmlns="http://www.w3.org/2000/svg">
<path d="M13.0008 0.8125H12.9992C6.26884 0.8125 0.8125 6.26925 0.8125 13C0.8125 19.7312 6.26884 25.1875 12.9992 25.1875H13.0008C19.7312 25.1875 25.1875 19.7308 25.1875 13C25.1875 6.26925 19.7312 0.8125 13.0008 0.8125ZM1.625 13C1.625 6.71816 6.71775 1.625 12.9992 1.625C13.0983 1.625 13.195 1.63028 13.2937 1.63272C13.5976 3.39625 13.8133 7.8195 13.8133 13C13.8133 18.1813 13.5976 22.6042 13.2937 24.3681C13.195 24.3701 13.0983 24.375 12.9992 24.375C6.71775 24.375 1.625 19.2827 1.625 13Z" fill="#00676C"/>
</svg>
