<svg width="68" height="67" viewBox="0 0 68 67" fill="none" xmlns="http://www.w3.org/2000/svg">
<g clip-path="url(#clip0_337_132)">
<path d="M39.6666 22.3334H13.2221C12.7212 22.3334 12.2407 22.1373 11.8865 21.7882C11.5323 21.4392 11.3333 20.9658 11.3333 20.4722V13.0278C11.3333 12.5342 11.5323 12.0608 11.8865 11.7118C12.2407 11.3628 12.7212 11.1667 13.2221 11.1667H39.6666C40.1675 11.1667 40.648 11.3628 41.0022 11.7118C41.3565 12.0608 41.5555 12.5342 41.5555 13.0278V20.4722C41.5555 20.9658 41.3565 21.4392 41.0022 21.7882C40.648 22.1373 40.1675 22.3334 39.6666 22.3334ZM15.111 18.6111H37.7777V14.7772H15.111V18.6111Z" fill="#00676C"/>
<path d="M39.6666 26.2045H13.2221C12.7212 26.2045 12.2407 26.4005 11.8865 26.7496C11.5323 27.0986 11.3333 27.572 11.3333 28.0656V35.3611C11.3333 35.8547 11.5323 36.3281 11.8865 36.6771C12.2407 37.0262 12.7212 37.2222 13.2221 37.2222H34.6799L41.5555 30.3361V28.0656C41.5555 27.572 41.3565 27.0986 41.0022 26.7496C40.648 26.4005 40.1675 26.2045 39.6666 26.2045ZM37.7777 33.5H15.111V29.7778H37.7777V33.5Z" fill="#00676C"/>
<path d="M20.8912 58.6436V58.532L21.4956 55.945H7.55561V7.44445H45.3334V26.5208L49.1112 23.0033V5.58334C49.1112 5.08974 48.9122 4.61636 48.5579 4.26734C48.2037 3.91831 47.7232 3.72223 47.2223 3.72223H5.66672C5.16576 3.72223 4.68531 3.91831 4.33107 4.26734C3.97684 4.61636 3.77783 5.08974 3.77783 5.58334V57.6945C3.77783 58.188 3.97684 58.6614 4.33107 59.0105C4.68531 59.3595 5.16576 59.5556 5.66672 59.5556H20.7778C20.7934 59.2493 20.8313 58.9445 20.8912 58.6436Z" fill="#00676C"/>
<path d="M41.5556 35.6775L40.0823 37.1478C40.4478 37.0735 40.7828 36.8943 41.045 36.6326C41.3073 36.3709 41.4849 36.0386 41.5556 35.6775Z" fill="#00676C"/>
<path d="M11.3333 50.1383C11.3333 50.6319 11.5323 51.1053 11.8865 51.4544C12.2407 51.8034 12.7212 51.9995 13.2221 51.9995H22.3644L22.931 49.58L23.1766 48.5564V48.4633H15.111V44.6667H27.0866L30.8644 40.9445H13.2221C12.7212 40.9445 12.2407 41.1405 11.8865 41.4896C11.5323 41.8386 11.3333 42.312 11.3333 42.8056V50.1383Z" fill="#00676C"/>
<path d="M63.2588 31.0247L56.8932 24.7527C56.6107 24.4736 56.2751 24.2522 55.9056 24.1011C55.5361 23.95 55.1399 23.8722 54.7399 23.8722C54.3398 23.8722 53.9437 23.95 53.5742 24.1011C53.2047 24.2522 52.8691 24.4736 52.5866 24.7527L26.6899 50.4174L24.5554 59.3694C24.4755 59.7556 24.4737 60.1535 24.5502 60.5404C24.6266 60.9273 24.7797 61.2955 25.0008 61.624C25.2219 61.9525 25.5066 62.2347 25.8385 62.4547C26.1705 62.6746 26.5433 62.8278 26.9354 62.9055C27.1301 62.9248 27.3263 62.9248 27.521 62.9055C27.7524 62.9427 27.9884 62.9427 28.2199 62.9055L37.381 60.9141L63.2588 35.3611C63.5415 35.0843 63.7658 34.7552 63.9189 34.3927C64.072 34.0301 64.1508 33.6413 64.1508 33.2487C64.1508 32.856 64.072 32.4673 63.9189 32.1047C63.7658 31.7422 63.5415 31.4131 63.2588 31.1363V31.0247ZM35.4543 57.5269L28.541 59.0344L30.2221 52.2786L49.6399 32.9416L54.9666 38.1899L35.4543 57.5269ZM57.101 36.0869L51.7743 30.8386L54.7777 27.9166L60.1421 33.2022L57.101 36.0869Z" fill="#00676C"/>
</g>
<defs>
<clipPath id="clip0_337_132">
<rect width="68" height="67" fill="white"/>
</clipPath>
</defs>
</svg>
