<?xml version="1.0" encoding="UTF-8"?>
<!DOCTYPE svg PUBLIC "-//W3C//DTD SVG 1.1//EN" "http://www.w3.org/Graphics/SVG/1.1/DTD/svg11.dtd">
<svg xmlns="http://www.w3.org/2000/svg" version="1.1" width="135px" height="135px" style="shape-rendering:geometricPrecision; text-rendering:geometricPrecision; image-rendering:optimizeQuality; fill-rule:evenodd; clip-rule:evenodd" xmlns:xlink="http://www.w3.org/1999/xlink">
<g><path style="opacity:0.907" fill="#fefffe" d="M 50.5,-0.5 C 56.1667,-0.5 61.8333,-0.5 67.5,-0.5C 77.662,2.82473 84.8287,9.4914 89,19.5C 90.3909,29.1003 90.8909,38.767 90.5,48.5C 109.121,47.6282 118.454,56.4615 118.5,75C 118.333,77.8333 118.167,80.6667 118,83.5C 115.314,87.977 111.814,88.6436 107.5,85.5C 106.708,79.551 106.208,73.551 106,67.5C 105.261,64.4265 103.428,62.2598 100.5,61C 72.5,60.3333 44.5,60.3333 16.5,61C 13.6193,62.2506 11.786,64.4173 11,67.5C 10.0431,84.5666 10.3764,101.567 12,118.5C 13.6374,120.81 15.804,122.31 18.5,123C 37.8333,123.333 57.1667,123.667 76.5,124C 80.0553,127.172 80.3887,130.672 77.5,134.5C 56.1667,134.5 34.8333,134.5 13.5,134.5C 7.16667,131.5 2.5,126.833 -0.5,120.5C -0.5,101.5 -0.5,82.5 -0.5,63.5C 4.69538,52.0609 13.6954,47.0609 26.5,48.5C 26.3336,40.4931 26.5003,32.4931 27,24.5C 30.2816,11.7227 38.115,3.38941 50.5,-0.5 Z M 55.5,10.5 C 64.9289,9.91053 72.0956,13.5772 77,21.5C 78.4137,30.4178 78.9137,39.4178 78.5,48.5C 64.8333,48.5 51.1667,48.5 37.5,48.5C 37.2252,40.4467 37.7252,32.4467 39,24.5C 41.9559,16.702 47.4559,12.0353 55.5,10.5 Z"/></g>
<g><path style="opacity:0.818" fill="#fefffe" d="M 25.5,85.5 C 33.4894,84.3173 36.156,87.4839 33.5,95C 27.994,97.9511 24.6606,96.4511 23.5,90.5C 23.4365,88.4861 24.1032,86.8194 25.5,85.5 Z"/></g>
<g><path style="opacity:0.813" fill="#fefffe" d="M 45.5,85.5 C 54.216,84.5366 56.5493,87.8699 52.5,95.5C 43.4193,97.1916 41.0859,93.8582 45.5,85.5 Z"/></g>
<g><path style="opacity:0.797" fill="#fefffe" d="M 65.5,85.5 C 70.7064,84.1199 73.7064,85.9532 74.5,91C 72.5799,96.7412 69.0799,97.9079 64,94.5C 61.7879,91.0213 62.2879,88.0213 65.5,85.5 Z"/></g>
<g><path style="opacity:0.884" fill="#fefffe" d="M 134.5,91.5 C 134.5,93.8333 134.5,96.1667 134.5,98.5C 129.702,102.797 125.035,107.297 120.5,112C 125.035,116.703 129.702,121.203 134.5,125.5C 134.5,127.833 134.5,130.167 134.5,132.5C 133.5,132.833 132.833,133.5 132.5,134.5C 130.167,134.5 127.833,134.5 125.5,134.5C 121.203,129.702 116.703,125.035 112,120.5C 107.297,125.035 102.797,129.702 98.5,134.5C 96.1667,134.5 93.8333,134.5 91.5,134.5C 89.568,131.823 89.068,128.823 90,125.5C 94.5,121 99,116.5 103.5,112C 99,107.5 94.5,103 90,98.5C 88.1667,91 91,88.1667 98.5,90C 103,94.5 107.5,99 112,103.5C 116.167,99.3333 120.333,95.1667 124.5,91C 128.025,88.8723 131.358,89.0389 134.5,91.5 Z"/></g>
</svg>
