<svg width="282" height="281" viewBox="0 0 282 281" fill="none" xmlns="http://www.w3.org/2000/svg">
<path d="M256.995 10.6033H25.0275C17.0821 10.6033 10.6411 17.0215 10.6411 24.9387V256.083C10.6411 264 17.0821 270.419 25.0275 270.419H256.995C264.94 270.419 271.381 264 271.381 256.083V24.9387C271.381 17.0215 264.94 10.6033 256.995 10.6033Z" fill="#3D5A98"/>
<path d="M190.526 270.397V169.785H224.41L229.478 130.577H190.526V105.551C190.526 94.2009 193.699 86.4514 210.024 86.4514H230.866V51.3264C220.773 50.2783 210.631 49.78 200.484 49.8336C170.478 49.8336 149.813 68.0547 149.813 101.665V130.577H115.928V169.785H149.813V270.397H190.526Z" fill="white"/>
</svg>
