<svg width="61" height="46" viewBox="0 0 61 46" fill="none" xmlns="http://www.w3.org/2000/svg">
<path d="M17.0963 40.0522L43.5664 1.09247C43.7178 0.85458 43.914 0.650427 44.1433 0.49211C44.3727 0.333792 44.6306 0.224534 44.9017 0.170811C45.1729 0.117088 45.4517 0.119994 45.7217 0.179358C45.9917 0.238722 46.2474 0.353334 46.4736 0.516401C46.6998 0.679468 46.892 0.887669 47.0386 1.12866C47.1853 1.36966 47.2835 1.63854 47.3275 1.91937C47.3714 2.2002 47.3602 2.48726 47.2944 2.76353C47.2287 3.0398 47.1098 3.29967 46.9448 3.52772L19.2537 44.2852C19.0953 44.5191 18.8929 44.7178 18.6584 44.8694C18.424 45.0209 18.1623 45.1224 17.889 45.1676C17.6158 45.2128 17.3364 45.2009 17.0677 45.1325C16.799 45.0642 16.5464 44.9408 16.3249 44.7697L1.47491 33.2947C1.25823 33.1273 1.07568 32.9175 0.937682 32.6774C0.799685 32.4373 0.708944 32.1715 0.67064 31.8952C0.593281 31.3373 0.734205 30.7706 1.06241 30.3197C1.39062 29.8688 1.87922 29.5708 2.42073 29.4911C2.96224 29.4114 3.5123 29.5566 3.94991 29.8947L17.0963 40.0522ZM46.4374 19.75C45.8904 19.75 45.3658 19.5261 44.979 19.1276C44.5922 18.7291 44.3749 18.1886 44.3749 17.625C44.3749 17.0614 44.5922 16.5209 44.979 16.1224C45.3658 15.7238 45.8904 15.5 46.4374 15.5H58.8124C59.3594 15.5 59.884 15.7238 60.2708 16.1224C60.6576 16.5209 60.8749 17.0614 60.8749 17.625C60.8749 18.1886 60.6576 18.7291 60.2708 19.1276C59.884 19.5261 59.3594 19.75 58.8124 19.75H46.4374ZM38.1874 32.5C37.6404 32.5 37.1158 32.2761 36.729 31.8776C36.3422 31.4791 36.1249 30.9385 36.1249 30.375C36.1249 29.8114 36.3422 29.2709 36.729 28.8724C37.1158 28.4738 37.6404 28.25 38.1874 28.25H58.8083C59.3553 28.25 59.8799 28.4738 60.2667 28.8724C60.6535 29.2709 60.8708 29.8114 60.8708 30.375C60.8708 30.9385 60.6535 31.4791 60.2667 31.8776C59.8799 32.2761 59.3553 32.5 58.8083 32.5H38.1874ZM29.9374 45.25C29.3904 45.25 28.8658 45.0261 28.479 44.6276C28.0922 44.2291 27.8749 43.6885 27.8749 43.125C27.8749 42.5614 28.0922 42.0209 28.479 41.6224C28.8658 41.2238 29.3904 41 29.9374 41H58.8083C59.3553 41 59.8799 41.2238 60.2667 41.6224C60.6535 42.0209 60.8708 42.5614 60.8708 43.125C60.8708 43.6885 60.6535 44.2291 60.2667 44.6276C59.8799 45.0261 59.3553 45.25 58.8083 45.25H29.9374Z" fill="#00676C"/>
</svg>
