<svg width="312" height="312" viewBox="0 0 312 312" fill="none" xmlns="http://www.w3.org/2000/svg">
<path d="M283.471 130.54H273V130H156V182H229.47C218.751 212.271 189.949 234 156 234C112.924 234 78 199.076 78 156C78 112.924 112.924 78 156 78C175.883 78 193.973 85.501 207.747 97.7535L244.517 60.983C221.299 39.3445 190.242 26 156 26C84.2075 26 26 84.2075 26 156C26 227.792 84.2075 286 156 286C227.792 286 286 227.792 286 156C286 147.284 285.103 138.775 283.471 130.54Z" fill="#FFC107"/>
<path d="M40.989 95.4915L83.7005 126.815C95.2575 98.202 123.247 78 156 78C175.884 78 193.973 85.501 207.747 97.7535L244.517 60.983C221.299 39.3445 190.242 26 156 26C106.067 26 62.764 54.1905 40.989 95.4915Z" fill="#FF3D00"/>
<path d="M156 286C189.579 286 220.09 273.149 243.159 252.252L202.924 218.205C189.433 228.465 172.949 234.013 156 234C122.187 234 93.4766 212.44 82.6606 182.351L40.2676 215.013C61.7826 257.114 105.476 286 156 286Z" fill="#4CAF50"/>
<path d="M283.471 130.54H273V130H156V182H229.47C224.342 196.407 215.107 208.996 202.904 218.211L202.924 218.199L243.159 252.245C240.312 254.832 286 221 286 156C286 147.284 285.103 138.775 283.471 130.54Z" fill="#1976D2"/>
</svg>
