<svg width="31" height="30" viewBox="0 0 31 30" fill="none" xmlns="http://www.w3.org/2000/svg">
<path d="M28.2188 0.5625H2.78125C2.16794 0.5625 1.57974 0.839062 1.14607 1.33134C0.712388 1.82363 0.46875 2.49131 0.46875 3.1875V26.8125C0.46875 27.5087 0.712388 28.1764 1.14607 28.6687C1.57974 29.1609 2.16794 29.4375 2.78125 29.4375H28.2188C28.8321 29.4375 29.4203 29.1609 29.8539 28.6687C30.2876 28.1764 30.5312 27.5087 30.5312 26.8125V3.1875C30.5312 2.49131 30.2876 1.82363 29.8539 1.33134C29.4203 0.839062 28.8321 0.5625 28.2188 0.5625ZM26.7243 8.05359L12.8493 23.8036C12.7419 23.9256 12.6144 24.0224 12.474 24.0885C12.3337 24.1545 12.1832 24.1885 12.0312 24.1885C11.8793 24.1885 11.7288 24.1545 11.5885 24.0885C11.4481 24.0224 11.3206 23.9256 11.2132 23.8036L5.43195 17.2411C5.21499 16.9948 5.09311 16.6608 5.09311 16.3125C5.09311 15.9642 5.21499 15.6302 5.43195 15.3839C5.64891 15.1376 5.94317 14.9993 6.25 14.9993C6.55683 14.9993 6.85109 15.1376 7.06805 15.3839L12.0312 21.0195L25.0882 6.19641C25.3052 5.95013 25.5994 5.81177 25.9062 5.81177C26.2131 5.81177 26.5073 5.95013 26.7243 6.19641C26.9413 6.44268 27.0631 6.77671 27.0631 7.125C27.0631 7.47329 26.9413 7.80732 26.7243 8.05359Z" fill="black"/>
</svg>
