<svg width="51" height="46" viewBox="0 0 51 46" fill="none" xmlns="http://www.w3.org/2000/svg">
<path id="Vector" d="M25.5 25.75C27.8628 25.75 30.1289 24.8018 31.7997 23.114C33.4705 21.4261 34.4091 19.1369 34.4091 16.75C34.4091 14.3631 33.4705 12.0739 31.7997 10.386C30.1289 8.69821 27.8628 7.75 25.5 7.75C23.1372 7.75 20.8711 8.69821 19.2003 10.386C17.5295 12.0739 16.5909 14.3631 16.5909 16.75C16.5909 19.1369 17.5295 21.4261 19.2003 23.114C20.8711 24.8018 23.1372 25.75 25.5 25.75ZM25.5 25.75C21.9557 25.75 18.5567 27.1723 16.0505 29.7041C13.5443 32.2358 12.1364 35.6696 12.1364 39.25V46M25.5 25.75C29.0443 25.75 32.4434 27.1723 34.9495 29.7041C37.4557 32.2358 38.8636 35.6696 38.8636 39.25V46M27.7273 7.75C28.6271 4.006 32.2152 1 36.6364 1C41.474 1 45.5009 5.0275 45.5455 10C45.5009 14.9725 41.474 19 36.6364 19M36.6364 19H34.4091M36.6364 19C43.9596 19 50 25.0435 50 32.5V37M23.2727 7.75C22.3729 4.006 18.7848 1 14.3636 1C9.526 1 5.49909 5.0275 5.45455 10C5.49909 14.9725 9.526 19 14.3636 19M14.3636 19H16.5909M14.3636 19C7.04036 19 1 25.0435 1 32.5V37" stroke="#00676C" stroke-width="2"/>
</svg>
