<svg width="47" height="47" viewBox="0 0 47 47" fill="none" xmlns="http://www.w3.org/2000/svg">
<path d="M45.9078 0.439284C45.5496 0.191435 45.1324 0.0426123 44.6983 0.00787563C44.2642 -0.026861 43.8286 0.0537219 43.4356 0.241469L1.40947 20.023C0.98113 20.2269 0.620509 20.5499 0.370651 20.9533C0.120792 21.3566 -0.00775146 21.8234 0.000361651 22.2978C0.00822006 22.772 0.152226 23.2339 0.415215 23.6285C0.678204 24.023 1.04908 24.3336 1.48364 24.5233L14.8578 30.3835V47L29.2951 36.6889L41.0624 41.8321C41.3714 41.9789 41.7092 42.0549 42.0513 42.0546C42.5057 42.0515 42.9505 41.9232 43.3368 41.6837C43.6771 41.4777 43.9627 41.1925 44.1693 40.8524C44.3759 40.5123 44.4973 40.1274 44.5234 39.7303L46.9955 2.63998C47.0215 2.21018 46.9347 1.78106 46.744 1.39507C46.5532 1.00909 46.2649 0.679624 45.9078 0.439284ZM39.8263 35.8976L26.7982 30.1857L34.6349 14.8551L15.7231 25.364L8.47976 22.1742L41.7793 6.49737L39.8263 35.8976Z" fill="#00676C"/>
</svg>
