<svg width="40" height="40" viewBox="0 0 40 40" fill="none" xmlns="http://www.w3.org/2000/svg">
<circle cx="20" cy="20" r="20" fill="#6979F8"/>
<path fill-rule="evenodd" clip-rule="evenodd" d="M19.4574 9.93457L19.3029 9.93441C18.5746 9.93333 17.9355 9.93237 17.3659 10.1564C16.8679 10.3522 16.4271 10.67 16.0838 11.0805C15.6912 11.55 15.49 12.1566 15.2607 12.8478L15.2607 12.8478L15.2319 12.9346H12.9998H10.9998C10.4114 12.9346 9.93433 13.4116 9.93433 14.0001C9.93433 14.5886 10.4114 15.0656 10.9998 15.0656H12.003L12.5376 23.0843L12.54 23.121C12.6007 24.0316 12.6498 24.7677 12.7301 25.3664C12.8129 25.9832 12.9369 26.5263 13.1813 27.0372C13.7589 28.2445 14.7697 29.1903 16.0129 29.6863C16.5389 29.8961 17.089 29.9837 17.71 30.0253C18.3127 30.0656 19.0504 30.0656 19.9631 30.0656H19.9998H20.0366C20.9492 30.0656 21.687 30.0656 22.2897 30.0253C22.9107 29.9837 23.4608 29.8961 23.9868 29.6863C25.2299 29.1903 26.2408 28.2445 26.8184 27.0372C27.0628 26.5263 27.1868 25.9832 27.2696 25.3664C27.3499 24.7677 27.3989 24.0316 27.4596 23.121L27.4621 23.0843L27.9967 15.0656H28.9998C29.5883 15.0656 30.0653 14.5886 30.0653 14.0001C30.0653 13.4116 29.5883 12.9346 28.9998 12.9346H26.9998H24.768L24.7392 12.8478C24.5099 12.1566 24.3087 11.55 23.9161 11.0805C23.5728 10.67 23.1319 10.3522 22.6339 10.1564C22.0644 9.93237 21.4252 9.93333 20.697 9.93441L20.5424 9.93457H19.4574ZM23.9761 15.0656C23.9919 15.066 24.0076 15.066 24.0234 15.0656H25.8609L25.3358 22.9425C25.2721 23.8984 25.2272 24.5633 25.1575 25.083C25.0891 25.5925 25.005 25.8897 24.896 26.1175C24.5495 26.842 23.9429 27.4094 23.1971 27.707C22.9625 27.8006 22.6604 27.8647 22.1474 27.899C21.6242 27.934 20.9579 27.9346 19.9998 27.9346C19.0418 27.9346 18.3754 27.934 17.8522 27.899C17.3393 27.8647 17.0372 27.8006 16.8026 27.707C16.0567 27.4094 15.4502 26.842 15.1036 26.1175C14.9946 25.8897 14.9106 25.5925 14.8422 25.083C14.7725 24.5633 14.7276 23.8984 14.6639 22.9425L14.1387 15.0656H15.9764C15.9922 15.066 16.008 15.066 16.0237 15.0656H23.9761ZM22.5135 12.9346C22.3998 12.6245 22.3447 12.5233 22.2814 12.4475C22.1669 12.3107 22.02 12.2048 21.854 12.1395C21.7115 12.0835 21.517 12.0656 20.5424 12.0656H19.4574C18.4828 12.0656 18.2883 12.0835 18.1459 12.1395C17.9799 12.2048 17.8329 12.3107 17.7185 12.4475C17.6552 12.5233 17.6001 12.6245 17.4863 12.9346H22.5135ZM19.066 18.0001C19.066 17.4116 18.589 16.9346 18.0005 16.9346C17.4121 16.9346 16.935 17.4116 16.935 18.0001V25.0001C16.935 25.5885 17.4121 26.0656 18.0005 26.0656C18.589 26.0656 19.066 25.5885 19.066 25.0001V18.0001ZM22.0003 16.9346C22.5888 16.9346 23.0658 17.4116 23.0658 18.0001V22.0001C23.0658 22.5885 22.5888 23.0656 22.0003 23.0656C21.4119 23.0656 20.9348 22.5885 20.9348 22.0001V18.0001C20.9348 17.4116 21.4119 16.9346 22.0003 16.9346Z" fill="white"/>
</svg>
