<svg width="40" height="40" viewBox="0 0 40 40" fill="none" xmlns="http://www.w3.org/2000/svg">
<circle cx="20" cy="20" r="20" fill="#6979F8"/>
<path fill-rule="evenodd" clip-rule="evenodd" d="M22.0763 11.9345C22.5445 10.206 24.1241 8.93451 26.0008 8.93451C28.2461 8.93451 30.0663 10.7547 30.0663 13C30.0663 15.2453 28.2461 17.0655 26.0008 17.0655C24.1241 17.0655 22.5445 15.794 22.0763 14.0655L17.0006 14.0655C15.6884 14.0655 14.5774 14.9268 14.2019 16.1148C15.861 16.627 17.0666 18.1727 17.0666 20C17.0666 21.8273 15.861 23.373 14.2019 23.8852C14.5773 25.0733 15.6884 25.9346 17.0006 25.9346L22.0763 25.9346C22.5444 24.206 24.1241 22.9345 26.0008 22.9345C28.2461 22.9345 30.0663 24.7547 30.0663 27C30.0663 29.2453 28.2461 31.0655 26.0008 31.0655C24.1241 31.0655 22.5445 29.794 22.0763 28.0656L17.0006 28.0656C14.5267 28.0656 12.467 26.2921 12.0235 23.9472C10.2503 23.5095 8.93555 21.9083 8.93555 20C8.93555 18.0917 10.2503 16.4905 12.0235 16.0528C12.467 13.7079 14.5267 11.9345 17.0006 11.9345L22.0763 11.9345ZM12.9942 18.0655C11.929 18.0692 11.0666 18.9339 11.0666 20C11.0666 21.0684 11.9327 21.9345 13.0011 21.9345C14.0694 21.9345 14.9355 21.0684 14.9355 20C14.9355 18.9335 14.0725 18.0686 13.0067 18.0655L13.0006 18.0655L12.9942 18.0655ZM26.0008 14.9345C27.0691 14.9345 27.9353 14.0684 27.9353 13C27.9353 11.9316 27.0691 11.0655 26.0008 11.0655C24.9324 11.0655 24.0663 11.9316 24.0663 13C24.0663 14.0684 24.9324 14.9345 26.0008 14.9345ZM27.9353 27C27.9353 28.0684 27.0691 28.9345 26.0008 28.9345C24.9324 28.9345 24.0663 28.0684 24.0663 27C24.0663 25.9316 24.9324 25.0655 26.0008 25.0655C27.0691 25.0655 27.9353 25.9316 27.9353 27Z" fill="white"/>
</svg>
