<svg width="21" height="22" viewBox="0 0 21 22" fill="none" xmlns="http://www.w3.org/2000/svg">
<path d="M20.4906 8.50078C20.4036 8.20917 20.2395 7.95183 20.0189 7.76082C19.7983 7.5698 19.5308 7.45356 19.2499 7.42656L13.9141 6.92656L11.8225 1.52031C11.7136 1.23664 11.5299 0.994324 11.2946 0.823885C11.0593 0.653445 10.7828 0.5625 10.5 0.5625C10.2172 0.5625 9.94074 0.653445 9.7054 0.823885C9.47007 0.994324 9.28639 1.23664 9.1775 1.52031L7.09222 6.92656L1.75011 7.42949C1.46804 7.45526 1.19923 7.57097 0.977419 7.76213C0.755603 7.95328 0.590647 8.21136 0.503236 8.50401C0.415825 8.79666 0.40985 9.11085 0.486061 9.40717C0.562273 9.7035 0.717277 9.96877 0.931636 10.1697L4.98449 14.0193L3.7698 19.7361C3.70557 20.0353 3.7239 20.3484 3.82249 20.6363C3.92108 20.9242 4.09557 21.1741 4.32413 21.3548C4.55269 21.5355 4.82519 21.639 5.10755 21.6523C5.38991 21.6655 5.66961 21.5881 5.91167 21.4295L10.4937 18.4021L15.0856 21.4295C15.3277 21.5881 15.6074 21.6655 15.8897 21.6523C16.1721 21.639 16.4446 21.5355 16.6732 21.3548C16.9017 21.1741 17.0762 20.9242 17.1748 20.6363C17.2734 20.3484 17.2917 20.0353 17.2275 19.7361L16.0137 14.0135L20.0657 10.1697C20.28 9.96808 20.4347 9.70205 20.5103 9.4051C20.5859 9.10814 20.5791 8.79352 20.4906 8.50078ZM19.1232 8.98906L15.0712 12.8328C14.874 13.0193 14.7273 13.2606 14.6469 13.531C14.5665 13.8013 14.5554 14.0903 14.6148 14.367L15.8322 20.0936L11.2439 17.0662C11.02 16.918 10.763 16.8396 10.5009 16.8396C10.2388 16.8396 9.98174 16.918 9.75788 17.0662L5.17585 20.0936L6.38515 14.3709C6.44458 14.0942 6.43349 13.8052 6.35307 13.5349C6.27266 13.2646 6.12595 13.0232 5.92875 12.8367L1.875 8.99492C1.87467 8.992 1.87467 8.98905 1.875 8.98613L7.21531 8.48418C7.47604 8.4592 7.72554 8.35732 7.93691 8.18952C8.14828 8.02173 8.31349 7.79439 8.41472 7.53203L10.5 2.13262L12.5844 7.53203C12.6856 7.79439 12.8508 8.02173 13.0622 8.18952C13.2736 8.35732 13.5231 8.4592 13.7838 8.48418L19.125 8.98613V8.99297L19.1232 8.98906Z" fill="black"/>
</svg>
