<svg width="31" height="23" viewBox="0 0 31 23" fill="none" xmlns="http://www.w3.org/2000/svg">
<path d="M2.5 0.125C2.06902 0.125 1.6557 0.296205 1.35095 0.600952C1.0462 0.905698 0.875 1.31902 0.875 1.75C0.875 2.18098 1.0462 2.5943 1.35095 2.89905C1.6557 3.20379 2.06902 3.375 2.5 3.375H28.5C28.931 3.375 29.3443 3.20379 29.649 2.89905C29.9538 2.5943 30.125 2.18098 30.125 1.75C30.125 1.31902 29.9538 0.905698 29.649 0.600952C29.3443 0.296205 28.931 0.125 28.5 0.125H2.5ZM2.5 6.625C2.06902 6.625 1.6557 6.79621 1.35095 7.10095C1.0462 7.4057 0.875 7.81902 0.875 8.25C0.875 8.68098 1.0462 9.0943 1.35095 9.39905C1.6557 9.70379 2.06902 9.875 2.5 9.875H15.5C15.931 9.875 16.3443 9.70379 16.649 9.39905C16.9538 9.0943 17.125 8.68098 17.125 8.25C17.125 7.81902 16.9538 7.4057 16.649 7.10095C16.3443 6.79621 15.931 6.625 15.5 6.625H2.5ZM0.875 14.75C0.875 14.319 1.0462 13.9057 1.35095 13.601C1.6557 13.2962 2.06902 13.125 2.5 13.125H28.5C28.931 13.125 29.3443 13.2962 29.649 13.601C29.9538 13.9057 30.125 14.319 30.125 14.75C30.125 15.181 29.9538 15.5943 29.649 15.899C29.3443 16.2038 28.931 16.375 28.5 16.375H2.5C2.06902 16.375 1.6557 16.2038 1.35095 15.899C1.0462 15.5943 0.875 15.181 0.875 14.75ZM2.5 19.625C2.06902 19.625 1.6557 19.7962 1.35095 20.101C1.0462 20.4057 0.875 20.819 0.875 21.25C0.875 21.681 1.0462 22.0943 1.35095 22.399C1.6557 22.7038 2.06902 22.875 2.5 22.875H15.5C15.931 22.875 16.3443 22.7038 16.649 22.399C16.9538 22.0943 17.125 21.681 17.125 21.25C17.125 20.819 16.9538 20.4057 16.649 20.101C16.3443 19.7962 15.931 19.625 15.5 19.625H2.5Z" fill="black"/>
</svg>
