<svg width="102" height="102" viewBox="0 0 102 102" fill="none" xmlns="http://www.w3.org/2000/svg">
<path d="M54 10C29.6996 10 10 29.6996 10 54C10 78.3018 29.6996 98 54 98C78.3018 98 98 78.3018 98 54C98 29.6996 78.3018 10 54 10ZM54 92.5866C32.7714 92.5866 15.5 75.2286 15.5 53.9998C15.5 32.7712 32.7714 15.4998 54 15.4998C75.2286 15.4998 92.5 32.7713 92.5 53.9998C92.5 75.2284 75.2286 92.5866 54 92.5866ZM71.5601 37.9001L45.7444 63.878L34.1188 52.2524C33.0449 51.1785 31.3042 51.1785 30.2289 52.2524C29.155 53.3263 29.155 55.067 30.2289 56.1409L43.84 69.7534C44.9139 70.8259 46.6547 70.8259 47.7299 69.7534C47.8537 69.6296 47.9596 69.4948 48.0559 69.3546L75.4514 41.7899C76.5239 40.716 76.5239 38.9753 75.4514 37.9001C74.3761 36.8263 72.6354 36.8263 71.5601 37.9001Z" fill="white"/>
</svg>
