<svg width="54" height="53" viewBox="0 0 54 53" fill="none" xmlns="http://www.w3.org/2000/svg">
<path d="M47.3375 52.3751L31.5969 36.6345L37.6344 30.597L53.375 46.3376L47.3375 52.3751ZM7.6625 52.3751L1.625 46.3376L21.4625 26.5001L16.575 21.6126L14.5625 23.6251L10.8969 19.9595V25.8532L8.88438 27.8657L0.1875 19.1688L2.2 17.1564H8.09375L4.5 13.5626L14.7063 3.35635C15.6646 2.39802 16.6948 1.70323 17.7969 1.27198C18.899 0.840725 20.025 0.625101 21.175 0.625101C22.325 0.625101 23.451 0.840725 24.5531 1.27198C25.6552 1.70323 26.6854 2.39802 27.6438 3.35635L21.0312 9.96885L24.625 13.5626L22.6125 15.5751L27.5 20.4626L33.9688 13.9939C33.7771 13.4668 33.6218 12.9157 33.503 12.3407C33.3842 11.7657 33.3238 11.1907 33.3219 10.6157C33.3219 7.78864 34.2927 5.40431 36.2342 3.46273C38.1758 1.52114 40.5592 0.551309 43.3844 0.553225C44.1031 0.553225 44.7864 0.625101 45.4343 0.768851C46.0821 0.912601 46.7405 1.12823 47.4094 1.41573L40.2938 8.53135L45.4688 13.7064L52.5844 6.59072C52.9198 7.26156 53.1479 7.91993 53.2686 8.56585C53.3894 9.21177 53.4488 9.89506 53.4469 10.6157C53.4469 13.4428 52.477 15.8271 50.5374 17.7687C48.5977 19.7103 46.2134 20.6801 43.3844 20.6782C42.8094 20.6782 42.2344 20.6303 41.6594 20.5345C41.0844 20.4386 40.5333 20.2709 40.0063 20.0314L7.6625 52.3751Z" fill="#00676C"/>
</svg>
