<svg width="52" height="53" viewBox="0 0 52 53" fill="none" xmlns="http://www.w3.org/2000/svg">
<path id="Vector" d="M9.28571 7.57143C8.79317 7.57143 8.3208 7.77085 7.97252 8.12583C7.62423 8.48081 7.42857 8.96227 7.42857 9.46429C7.42857 9.9663 7.62423 10.4478 7.97252 10.8027C8.3208 11.1577 8.79317 11.3571 9.28571 11.3571H42.7143C43.2068 11.3571 43.6792 11.1577 44.0275 10.8027C44.3758 10.4478 44.5714 9.9663 44.5714 9.46429C44.5714 8.96227 44.3758 8.48081 44.0275 8.12583C43.6792 7.77085 43.2068 7.57143 42.7143 7.57143H9.28571ZM13 30.2857C14.4776 30.2857 15.8947 29.6874 16.9396 28.6225C17.9844 27.5576 18.5714 26.1132 18.5714 24.6071C18.5714 23.1011 17.9844 21.6567 16.9396 20.5918C15.8947 19.5268 14.4776 18.9286 13 18.9286C11.5224 18.9286 10.1052 19.5268 9.0604 20.5918C8.01556 21.6567 7.42857 23.1011 7.42857 24.6071C7.42857 26.1132 8.01556 27.5576 9.0604 28.6225C10.1052 29.6874 11.5224 30.2857 13 30.2857ZM13 26.5C12.5075 26.5 12.0351 26.3006 11.6868 25.9456C11.3385 25.5906 11.1429 25.1092 11.1429 24.6071C11.1429 24.1051 11.3385 23.6237 11.6868 23.2687C12.0351 22.9137 12.5075 22.7143 13 22.7143C13.4925 22.7143 13.9649 22.9137 14.3132 23.2687C14.6615 23.6237 14.8571 24.1051 14.8571 24.6071C14.8571 25.1092 14.6615 25.5906 14.3132 25.9456C13.9649 26.3006 13.4925 26.5 13 26.5ZM18.5714 39.75C18.5714 41.2561 17.9844 42.7004 16.9396 43.7654C15.8947 44.8303 14.4776 45.4286 13 45.4286C11.5224 45.4286 10.1052 44.8303 9.0604 43.7654C8.01556 42.7004 7.42857 41.2561 7.42857 39.75C7.42857 38.2439 8.01556 36.7996 9.0604 35.7346C10.1052 34.6697 11.5224 34.0714 13 34.0714C14.4776 34.0714 15.8947 34.6697 16.9396 35.7346C17.9844 36.7996 18.5714 38.2439 18.5714 39.75ZM14.8571 39.75C14.8571 39.248 14.6615 38.7665 14.3132 38.4115C13.9649 38.0566 13.4925 37.8571 13 37.8571C12.5075 37.8571 12.0351 38.0566 11.6868 38.4115C11.3385 38.7665 11.1429 39.248 11.1429 39.75C11.1429 40.252 11.3385 40.7335 11.6868 41.0885C12.0351 41.4434 12.5075 41.6429 13 41.6429C13.4925 41.6429 13.9649 41.4434 14.3132 41.0885C14.6615 40.7335 14.8571 40.252 14.8571 39.75ZM22.2857 24.6071C22.2857 24.1051 22.4814 23.6237 22.8297 23.2687C23.1779 22.9137 23.6503 22.7143 24.1429 22.7143H42.7143C43.2068 22.7143 43.6792 22.9137 44.0275 23.2687C44.3758 23.6237 44.5714 24.1051 44.5714 24.6071C44.5714 25.1092 44.3758 25.5906 44.0275 25.9456C43.6792 26.3006 43.2068 26.5 42.7143 26.5H24.1429C23.6503 26.5 23.1779 26.3006 22.8297 25.9456C22.4814 25.5906 22.2857 25.1092 22.2857 24.6071ZM24.1429 37.8571C23.6503 37.8571 23.1779 38.0566 22.8297 38.4115C22.4814 38.7665 22.2857 39.248 22.2857 39.75C22.2857 40.252 22.4814 40.7335 22.8297 41.0885C23.1779 41.4434 23.6503 41.6429 24.1429 41.6429H42.7143C43.2068 41.6429 43.6792 41.4434 44.0275 41.0885C44.3758 40.7335 44.5714 40.252 44.5714 39.75C44.5714 39.248 44.3758 38.7665 44.0275 38.4115C43.6792 38.0566 43.2068 37.8571 42.7143 37.8571H24.1429ZM11.1429 0C8.18759 0 5.35336 1.19655 3.26367 3.32643C1.17398 5.45631 0 8.34504 0 11.3571V41.6429C0 44.655 1.17398 47.5437 3.26367 49.6736C5.35336 51.8035 8.18759 53 11.1429 53H40.8571C43.8124 53 46.6466 51.8035 48.7363 49.6736C50.826 47.5437 52 44.655 52 41.6429V11.3571C52 8.34504 50.826 5.45631 48.7363 3.32643C46.6466 1.19655 43.8124 0 40.8571 0H11.1429ZM3.71429 11.3571C3.71429 9.34908 4.49694 7.42325 5.89006 6.00333C7.28319 4.58342 9.17268 3.78571 11.1429 3.78571H40.8571C42.8273 3.78571 44.7168 4.58342 46.1099 6.00333C47.5031 7.42325 48.2857 9.34908 48.2857 11.3571V41.6429C48.2857 43.6509 47.5031 45.5767 46.1099 46.9967C44.7168 48.4166 42.8273 49.2143 40.8571 49.2143H11.1429C9.17268 49.2143 7.28319 48.4166 5.89006 46.9967C4.49694 45.5767 3.71429 43.6509 3.71429 41.6429V11.3571Z" fill="#00676C"/>
</svg>
